<?xml version="1.0" standalone="no"?>
<!DOCTYPE svg PUBLIC "-//W3C//DTD SVG 20010904//EN"
 "http://www.w3.org/TR/2001/REC-SVG-20010904/DTD/svg10.dtd">
<svg version="1.0" xmlns="http://www.w3.org/2000/svg"
 width="260.000000pt" height="260.000000pt" viewBox="0 0 260.000000 260.000000"
 preserveAspectRatio="xMidYMid meet">
<metadata>
Created by potrace 1.11, written by Peter Selinger 2001-2013
</metadata>
<g transform="translate(0.000000,260.000000) scale(0.100000,-0.100000)"
fill="#000000" stroke="none">
<path d="M882 1693 c-18 -9 -40 -29 -48 -44 -26 -52 -37 -184 -32 -409 6 -252
18 -302 78 -333 44 -23 125 -19 163 9 50 36 59 87 65 335 4 234 -5 345 -34
401 -28 54 -124 75 -192 41z m92 -209 c14 -5 16 -29 16 -166 0 -159 -7 -198
-35 -198 -28 0 -35 39 -35 185 0 170 8 197 54 179z"/>
<path d="M341 1601 c1 -91 3 -100 21 -103 18 -3 19 -12 19 -193 0 -179 -1
-190 -19 -195 -18 -4 -20 -16 -21 -107 l-2 -103 80 0 81 0 0 105 c0 98 -1 105
-20 105 -19 0 -20 7 -20 200 0 110 1 200 3 200 2 0 32 -137 68 -305 l64 -305
62 0 62 0 0 298 c0 291 1 297 21 300 19 3 20 10 20 103 l0 99 -80 0 -80 0 0
-100 c0 -93 1 -100 20 -100 19 0 20 -6 19 -172 0 -95 -2 -168 -4 -163 -2 6
-22 96 -44 200 -22 105 -48 223 -57 263 l-16 72 -89 0 -90 0 2 -99z"/>
<path d="M1150 1525 l0 -175 33 0 32 0 -3 75 -4 75 31 0 31 0 0 -195 c0 -188
-1 -195 -20 -195 -19 0 -20 -7 -20 -105 l0 -105 95 0 95 0 0 105 c0 98 -1 105
-20 105 -19 0 -20 7 -20 195 l0 195 25 0 c23 0 24 -3 27 -72 l3 -73 33 -3 32
-3 0 175 0 176 -175 0 -175 0 0 -175z"/>
<path d="M1530 1600 c0 -93 1 -100 20 -100 19 0 20 -7 20 -195 0 -188 -1 -195
-20 -195 -19 0 -20 -7 -20 -105 l0 -105 165 0 165 0 0 165 0 165 -50 0 -50 0
0 -60 0 -60 -40 0 -40 0 0 80 0 80 50 0 50 0 0 40 0 40 -50 0 -50 0 0 75 0 75
40 0 40 0 0 -60 0 -60 45 0 45 0 0 160 0 160 -160 0 -160 0 0 -100z"/>
<path d="M1910 1600 c0 -93 1 -100 20 -100 19 0 20 -7 20 -195 0 -188 -1 -195
-20 -195 -19 0 -20 -7 -20 -105 l0 -105 95 0 95 0 0 105 c0 98 -1 105 -20 105
-18 0 -20 7 -20 80 0 71 2 80 18 80 10 0 27 -6 38 -14 17 -13 20 -31 25 -148
7 -175 31 -222 105 -204 41 11 58 59 62 184 4 98 2 112 -12 112 -11 0 -16 -9
-16 -29 0 -39 -9 -61 -25 -61 -13 0 -18 29 -27 135 -2 20 -13 36 -34 50 l-31
21 29 17 c46 26 61 76 56 189 -6 155 -34 176 -225 177 l-113 1 0 -100z m214
-116 c37 -37 26 -116 -17 -128 -45 -12 -47 -9 -47 69 0 73 1 75 24 75 14 0 32
-7 40 -16z"/>
</g>
</svg>
